<mxfile host="65bd71144e">
    <diagram id="HIP3nbAZw_EuaXWnEj3U" name="Page-1">
        <mxGraphModel dx="1324" dy="926" grid="1" gridSize="10" guides="1" tooltips="1" connect="1" arrows="1" fold="1" page="1" pageScale="1" pageWidth="850" pageHeight="1100" math="0" shadow="0">
            <root>
                <mxCell id="0"/>
                <mxCell id="1" parent="0"/>
                <mxCell id="8" value="http://ics2o.mths.ca" style="swimlane;whiteSpace=wrap;html=1;" vertex="1" parent="1">
                    <mxGeometry x="45" y="20" width="760" height="480" as="geometry"/>
                </mxCell>
                <mxCell id="9" value="Calculate" style="rounded=1;whiteSpace=wrap;html=1;fontSize=20;" vertex="1" parent="8">
                    <mxGeometry x="30" y="310" width="100" height="40" as="geometry"/>
                </mxCell>
                <mxCell id="10" value="&lt;font color=&quot;#ffffff&quot; style=&quot;&quot;&gt;21°F when converted to celsius is -6.111°C&lt;/font&gt;" style="text;html=1;align=left;verticalAlign=middle;resizable=0;points=[];autosize=1;strokeColor=none;fillColor=none;fontSize=15;fontColor=light-dark(#000000,#FFFFFF);" vertex="1" parent="8">
                    <mxGeometry x="30" y="370" width="310" height="30" as="geometry"/>
                </mxCell>
                <mxCell id="11" value="" style="rounded=1;whiteSpace=wrap;html=1;fillColor=none;" vertex="1" parent="8">
                    <mxGeometry x="110" y="265" width="200" height="20" as="geometry"/>
                </mxCell>
                <mxCell id="12" value="&lt;font color=&quot;#ffffff&quot;&gt;°F&lt;/font&gt;" style="text;html=1;align=left;verticalAlign=middle;resizable=0;points=[];autosize=1;strokeColor=none;fillColor=none;fontSize=15;fontColor=light-dark(#000000,#FFFFFF);" vertex="1" parent="8">
                    <mxGeometry x="313" y="260" width="40" height="30" as="geometry"/>
                </mxCell>
                <mxCell id="13" value="" style="shape=image;verticalLabelPosition=bottom;labelBackgroundColor=default;verticalAlign=top;aspect=fixed;imageAspect=0;image=data:image/png,iVBORw0KGgoAAAANSUhEUgAAAgAAAAIACAYAAAD0eNT6AAAgAElEQVR4Ae29C3xV1Zn3H+1MO7f/vG+dYrKfdXKDXCTcQRTkEkhyTr1b75eRqoxaS4tj1dba4bW21tbWXmwdR6e2dKqtF3SkIowXVAgkEAi5CxggJBEQlEsgOdxJzt/lJG2MCeesvfc52eecL58PnyTnrL3XWt/97Of57bXXelZKCv8gAAEIeJSAiKSLSImIzBGRRy3LWmJZ1hqlVJOI7BOR/SIS6v5/pPuznSLyjoiUisizH333XRG5xrKs8ampqX/v0a7SLAhAAAIQgEByEhCRvxORgIg8JCKrRaSjV3DvCfJu/HxPKfWiiHzNsqzhyUmbXkMAAhCAAAQGkUBqaurI7id0/bR+NEoBP5xoeF9E/qiUuuG00077x0HEQdUQgAAEIACBxCWQkZHxecuybv1oaL9skAL+yQTBYRF5RSl15YQJE/46ca8CPYMABCAAAQjEhsApSqkLRGSRiBzzYODvTxTokYGHLcvKjA0iaoEABCAAAQgkDoFTReQipdTaOAn6/QmBY0qpp0TkjMS5LPQEAhCAAAQgEB0Cp+phdBFZH8eBv68Y6NSvB/Rqgugg46wQgAAEIACBOCZgWdY0pVRDAgX+vkKgS48IpKWlDYnjy0TTIQABCEAAAu4Q8Pl8pyml/lNEuhI4+PcWA/ssy/rXlJSUU90hyFkgAAEIQAAC8UVAD/d/tTsJT+8AmSy/lyulxsTXJaO1EIAABCAAAQcE9DC4iLyaJE/8JxM0x0XknpSUlFMc4ORQCEAAAhCAgPcJpKWlFYrIDoL/n1MRa4Hwsn4V4v2rRwshAAEIQAAC5gT00r77ROREtIO/z+frnHTO1JYbb5m79ie/mr/8xddWrSiv315b2bj73eot+96ra27f29AaPNzQGgzVt3S01W498H7NlramNRt2bVhasbFi/rNLln/rvh+tvPBLVzXk5Q9vi3Z7u8/f7PP5zjLHyhEQgAAEIAABjxIYMmTIP0R7yP+syVO3zPvBL5a9Xr5hVX1Lhw7wIbf+12zZt+35V0pX3Tr37nV5+WcciKIgOKqUutGjl5FmQQACEIAABCInICJf0DvxRSNoTp4yvfmJp15aVtvUts2tYB/BeU6sqG5Zd8e37i/LHjrsYBT6pVdDfCtywpSEAAQgAAEIeIyAiGSIyEY3g2RmZtaR73zv4RWr1++ojyBYuzYK0F9d9a0dHYveXLfyvIsu09sIn2yyn53vfsrkQI8ZNM2BAAQgAIHwBPSWuSLynluBcWhObvAHP328tG7rgZ39BePB/mxVw476m2693dXUxUqpp9lcKLytUQICEIAABDxCQCmVJyIfuhH89RP/zx9/eln3xL2oPtG7ISK0ELjs6utr3eh79zn+SNIgjxg2zYAABCAAgYEJpKeni4g0uxEAL7/q+pqqzfua3AjMsT6Hnow4avRYV0SQiDw2MHG+gQAEIAABCAwygYyMjM9bllXvNPiPHjNu16srGlbFOmi7XZ9eYvjdHz1SqpRyI80xEwMH2b6pHgIQgAAE+iHg8/n+VkRWOA3+V153U3Vdc/sHbgfjwTxfWW1r9egx4z5wyEaLiNn9oOcjCEAAAhCAwOAREJFnnAS49IyM40/8/qU3G1qDnYMZrKNVt568eMkV19Y5YSQix0RkyuBdZWqGAAQgAAEI9CJgWdZXnAS2gpGj9qxq2FEXreDrofMe//Evf7vcCSu9skIp9U+98PMrBCAAAQhAIPYEfD7fqI8S1xyyG9QmTJy0vaapbauHgnTUVxo88/LyUp2u2C4zy7KWkCMg9rZOjRCAAAQg0E2gO8Wv7UQ/02YUb9F5+JMp+Pf0dUlpbVlGRqYe0reTJCiklLoLQ4QABCAAAQgMCgGdqMZuADvvokvX61nyPQExGX8uq9yyNiMj86hNhsfS0tImDsqFp1IIQAACEEheAiLitxm4QjqHf11L++5kDPp9+/zqioZyB68DqlJSUj6TvFZIzyEAAQhAIKYECgoKPisi79oRAGPGn7mzpqlte99AmMx/P7+4rNQOy+5jvhbTi09lEIAABCCQvARE5D47ASsvf3hb1eZ9m5M52A/U94cf/Z3d1QFtp59+emryWiM9hwAEIACBmBBIT08fJiKHTQWAzoa3tGJjxUABkM+DndfMurnKlKsub1nW72Ny8akEAhCAAASSl4CILLQTpH70yJOlBPngSZcY1jW3fzhm7Hg7+wd0+Xy+s5PXKuk5BCAAAQhElYBSasxHw//Gee31jP+G1uBRBMDJBYDmU1a3rcaXnn7Chsh6JaoXn5NDAAIQgEDyEhCR500DU/bQYQert+x7j+AfPvj3MLKZLbBLKTU2ea2TnkMAAhCAQFQIiMgZImKcve7JPyxa1hPY+BmZCKhvCQb1aglTsaUFWlQuPieFAAQgAIHkJaAnmpkGJL3ev6E1eITAH1ng783ptbJ3Vpny1gItLS1tRPJaKT2HAAQgAAFXCSilfCJy3DQglde9V9U7qPG7mRC4/qbbqk2Zi8iTrl58TgYBCEAAAslLwLKse00D0Y23zF1LwDcL+H15VTbubtTLJw3ZHxCRv0tea6XnEIAABCDgGgERMd7wZ/X6HfV9Axp/mwsCLaQMBYDeXOha1y4+J4IABCAAgeQkoNeXmwagq6+fzdB/q3mw708gVazf+Y4pf6XU/ySntdJrCEAAAhBwjYCIPGYagMobttf0F8z4zJ4ouPLaG0znAhwfMmRImmtGwIkgAAEIQCC5CEyYMOGvRWSPiQCYWXJuI4HeXqAfiNubFY1rTK6BLquU+kZyWSu9hQAEIAAB1whYljXNNPA89cIbywcKZHxuWxgcKxgxcq/htXjdNUPgRBCAAAQgkFwEPgo43zUJOukZGcfrmts/INDbDvQD7hXwvYceNd0y+GBOTs7nksti6S0EIAABCLhCQClltEXtrNlzWPrn0uS/viLKzmRAPYLjiiFwEghAAAIQSB4Cei25iBwxGQFY9HZ1Wd/Axd/ujQacedbkbSbXQ4/gJI/F0lMIQAACEHCFgIgEDINNqHbrgfcJ+O4F/L4s77nvoZUm10SP4LhiDJwEAhCAAASSh4CI3G8SbKZOn7m1b8Dib3fFwOJlNWUm10SP4KSkpHwmeayWnkIAAhCAgGMCH+3+95xJsLn/oV+WEvDdDfh9edY1t+8yuSa6bHp6+jDHxsAJIAABCEAgeQiISI1JsHm9fMOqvgGLv90XBFOmzdhqcl2UUhckj9XSUwhAAAIQcErgVBE5aBJoapraeAUQpRUAvYXUbXO/udrkupAQyOmtwPEQgAAEkoiAZVmZJkEmIyPzWENrUP8fcB0737nD5pFfP7PM5NpYlvVEEpkuXYUABCAAAScELMv6okmQmTq9qIkA706AD8dRL7U0uTasBHByJ3AsBCAAgSQjYFnWLSZBZvZX76gIF7j43h2BYJoQSCnVlGTmS3chAAEIQMAuARG5x0QAPPizx8n/H6PXHzrVssm1EZH9du2A4yAAAQhAIMkIfJQF8CcmQeZXv34WARAjAdDQGjSanCkiXXpXxyQzYboLAQhAAAJ2CIjIf5gIgPnPLkEAxE4AdPnS00+YXJ+srKz/a8cOOAYCEIAABJKMgIj81iTAPL+4jCRAsRMAody8/AMm1+f0009PTTITprsQgAAEIGCHgFLqaZMAwyZA7kzwi3Si5LgJE3eYXB8RybBjBxwDAQhAAAJJRkBE/mgSYJaU1pdHGrwo51wsnDVp6nsm1yc1NTU7yUyY7kIAAhCAgB0CCADnQTqaQgcBYMeqOQYCEIAABMISQAAgAMIaCQUgAAEIQCDxCCAAEACJZ9X0CAIQgAAEwhJAACAAwhoJBSAAAQhAIPEIIAAQAIln1fQIAhCAAATCEkAAIADCGgkFIAABCEAg8QggABAAiWfV9AgCEIAABMISQAAgAMIaCQUgAAEIQCDxCCAAEACJZ9X0CAIQgAAEwhJAACAAwhoJBSAAAQhAIPEIIAAQAIln1fQIAhCAAATCEkAAIADCGgkFIAABCEAg8QggABAAiWfV9AgCEIAABMISQAAgAMIaCQUgAAEIQCDxCCAAEACJZ9X0CAIQgAAEwhJAACAAwhoJBSAAAQhAIPEIIAAQAIln1fQIAhCAAATCEkAAIADCGgkFIAABCEAg8QggABAAiWfV9AgCEIAABMISQAAgAMIaCQUgAAEIQCDxCCAAEACJZ9X0CAIQgAAEwhJAACAAwhoJBSAAAQhAIPEIIAAQAIln1fQIAhCAAATCEkAAIADCGgkFIAABCEAg8QggABAAiWfV9AgCEIAABMISQAAgAMIaCQUgAAEIQCDxCCAAEACJZ9X0CAIQgAAEwhJAACAAwhoJBSAAAQhAIPEIIAAQAIln1fQIAhCAAATCEkAAIADCGgkFIAABCEAg8QggABAAiWfV9AgCEIAABMISQAAgAMIaCQUgAAEIQCDxCCAAEACJZ9X0CAIQgAAEwhJAACAAwhoJBSAAAQhAIPEIIAAQAIln1fQIAhCAAATCEkAAIADCGgkFIAABCEAg8QggABAAiWfV9AgCEIAABMISQAAgAMIaCQUgAAEIQCDxCCAAEACJZ9X0CAIQgAAEwhJAACAAwhoJBSAAAQhAIPEIIAAQAIln1fQIAhCAAATCEkAAIADCGgkFIAABCEAg8QggABAAiWfV9AgCEIAABMISQAAgAMIaCQUgAAEIQCDxCCAAEACJZ9X0CAIQgAAEwhJAACAAwhoJBSAAAQhAIPEIIAAQAIln1fQIAhCAAATCEkAAIADCGgkFIAABCEAg8QggABAAiWfV9AgCEIAABMISQAAgAMIaCQUgAAEIQCDxCCAAEACJZ9X0CAIQgAAEwhJAACAAwhoJBSAAAQhAIPEIIAAQAIln1fQIAhCAAATCEkAAIADCGgkFIAABCEAg8QggABAAiWfV9AgCEIAABMISQAAgAMIaCQUgAAEIQCDxCCAAEACJZ9X0CAIQgAAEwhJAACAAwhoJBSAAAQgkA4HU1NS/F5FvW5ZVLyJHRSSUzP8ty/pE/5eU1pc3tHo7aCZS+86aNPU9E/tLTU3NTob7lD5CAAIQcJVAamrqUBF518ThJltZBEBsxQ8CwNVbnJNBAAIQ+DSB7id/gn+YEQ8EAALg03cPn0AAAhCIYwKWZd2bbE/zdvqLAEAAxPFtTtMhAAEIfJqAUqrBTkBMtmMWLq2sSqR37F7vC68APn2v8gkEIAABNwmcKiLHky2Y2+nv84tXbvB60Eyk9iEA3LzNORcEIACBTxM4hRn/ka12QADwCuDTtw+fQAACEIhjAiJSY+eJONmO+dOb69Yl0hO21/vCCEAcOxWaDgEIxAcBpdSdyRbM7fSXSYCMAMTHHU0rIQABCERIICsr629EpM5OUEymYxAACIAIbymKQQACEIgfAkopn4hUJ1NAN+0rAgABED93NC2FAAQgYECgoKDgsyIyR0TKRGSPaYBM9PIIAASAwe1EUQhAAAIQ8CqBJNgM6GB9c/uemq1tO+pbOtoaWoNdXp/417t9TAL06p1DuyAAAQjEOYFEEQC1Ww/sWvR2ddmDP3t8+XU33LLuzLMmb/P5fJ39jcjk5OYG/edetHHuXf9W/sRTLy0rb9he09AaPNw78HrldwRAnN9gNB8CEICAVwnEswCo2dLW9Isn/rBs6vSipv4CvclnWdlDD119/eyql5dWrqxv6WhHAHjVYmkXBCAAAQi4QiAOBUDna2XvrLrgkiujlrpZi4E77/1+WdWmPZsHWwgwAuCKmXMSCEAAAhDoSyCOBEDXktLaMjee9iMdGVBKdc3+6h0VlY27GwdLCCAA+losf0MAAhCAgCsE4kEA1Gxpa77yupsGbXmmnksw74Gfr2ho6TgQayGAAHDFzDkJBCAAAQj0JeBxAdD5xNMLl2VkZB6L9Kk9muVGjxm3a2Vta0x3Q0QA9LVY/oYABCAAAVcIeFUA1DW37501+7bKaAZ0O+fWrwV+8NPHSxtag8diMRqAAHDFzDkJBCAAAQj0JeBFAVDT1LZ1/ISzd9gJ0LE6ZtbsOWsbWoPBaIsABEBfi+VvCEAAAhBwhYDXBEDlux9uKBg5Ki4yMJ530aXrdZKhaIoABIArZs5JIAABCECgLwEvCYDKxt0b8/Ly22P1FO9GPUUl5zVGc3IgAqCvxfI3BCAAAQi4QsArAqCmaX/r6DHjPnAjKMf6HBd+6aqGhtbgwWiMBCAAXDFzTgIBCEAAAn0JeEIAtHQcmHTO1JZoBO5hPt/BsRkZuydlZu4oSE9vUyJd0ahHpxVGAPS1Lv6GAAQgAAHPEvCCAPj6Xd+pcCsoX5qbu2Hh2Wcv+7CoqKrT798VCgRCff4fPlRS0tgwbdrK740aVX5GevoBt+pesKRcrw4IufmfEQDP3jo0DAIQgEB8ExhsAbBgSVmp0wCcpdSRx8aPLz3i92/uE+z7Bv/+/j707vTpZecPG9bouB1Z2YcrG3e/iwCI73uC1kMAAhBICgKDKQBqtx74MC//jA4ngff/jRq16oTfv8NG4O8rBrqaZ8xYNTEzc6eT9nzx/EvWN7QGT7glAhgBSIrbkE5CAAIQiD2BwRQAc77x7XK7wVa/z982c2aFC4H/E0Kgy+/v+PGYMSvttksf5+arAARA7O8JaoQABCCQFAQGSwCsqt9eZzfIlgwb1nTU73/P7eDf+3zVU6euyFDquJ025uUPb3NraSACICluQzoJAQhAIPYEBksAXHfDLevsBNcLhg1r7PT7d/cO1tH6fdvMmWv0/AI77fz1039a5sZrAARA7O8JaoQABCCQFAQGQwDohD86p75pYJ2anf1ep9//QbQCfn/n1a8Z0pU6YdrW4QUj9ta3OE8VjABIituQTkIAAhCIPYHBEAB33vv9MtOAOlSpQ4f9/k39Belof/bapEnLTNury7/4avkKp6MACIDY3xPUCAEIQCApCMRaANS3dBzMyc0NmgbUymnTSqMd6E9y/s6vDB9eZdrmS664tg4BkBS3EZ2EAAQgEH8EYi0AFr1dbfz0f0Ve3vpQINB5kgD9iZn80Sh3vKRke67PZyRc9GuO6i373nMiAhgBiL97ihZDwDGB9PT0YSLyS6VUg4jsFpF9/IdBFGzgqMmT7ZLSekcpb7/y9btWm9Sny+4vKmqIRlA3PeeLEycavwp4+qW3liMAHLtDTgCB5CEgIrNFxMgxmzpVyksIBuYMHAqAroIRI/eacL8xP7/GNFBHq3xXILA3Pz3dKHHRTbfevhYBkDy+m55CwBEBEfmSRGnDEhPHS1nz4JgMzJwIAJ0m15TR1sLCVdEK6HbO+6vx41eY9CE3N6+joTV43K4I4BWAI3fKwRCIHwI5OTmfE5FtJg6GsgTqWNqAEwHw0usVRsHzjIyM9lAgcNhOoI7WMW3FxfWmvKs272tCAMSPH6alEBgUAj6f73xT50J5BEAsbeBPb65bZzeY/eRX85ebtPXuESNcT/XrgjA4MSI9Xc/HifgV0lsVjRV2mTECMCiumEohEHsCInKPiWOhbOROGFbusHp+8coNdoPZ7K/cvsbkOpROnrzchYDt+gqBb44YYbR98fxnl9ieCIgAiL0fpkYIDAoBy7K+Y+IgKetOUINj5Byfe2XlRrsCwP/FCzeasN5VVLTOiwJg4dlnG60GuP+hX5baZYYAGBRXTKUQiD0By7IuM3GQlI08cMHKHVYLl1ZW2Q1mZ0+e0mJyHY4FAs1eFAAbCguNdgvUmQ/tMkMAxN4PUyMEBoXAkCFD/kFEjJZJmThUyroTBJOZo5NJgCNGjtH5LCJ+d97p9+/xogDYNmOG0SuAf5nzDeYADIpHpVIIxBkBy7JuNXGSlI08oMDKOSsnAkAviTO5Bl2BQNCLAmB3UZFRWuBrZt1se9SEEYA4c+A0FwJOCYjI98gF4DxYmQQbykbG24kAMN0DIORVAVBcXG1iL1dfPxsB4NQpcjwEkomAZVnTRGSRiBjlHzdxTJSNLOjB6S+cEACB0G4EQDK5YvoKgcElcNppp/1jRkbG5/kPA7dtQCn1gonAQQAgAAbXG1I7BCAAAQi4QiCWuwHyCiAYMl0NwBwAV8yck0AAAhCAQF8CCICAcaIgXgH0tSL+hgAEIACBuCOAAEAAxJ3R0mAIQAACEHBOAAGAAHBuRZwBAhCAAATijgACAAEQd0ZLgyEAAQhAwDkBBAACwLkVcQYIQAACEIg7AggABEDcGS0NhgAEIAAB5wQQAAgA51bEGSAAAQhAIO4IIAAQAHFntDQYAhCAAAScE0AAIACcWxFngAAEIACBuCOAAEAAxJ3R0mAIQAACEHBOAAGAAHBuRZwBAhCAAATijgACAAEQd0ZLgyEAAQhAwDkBBAACwLkVcQYIQAACEIg7AggABEDcGS0NhgAEIAAB5wQQAAgA51bEGSAAAQhAIO4IIAAQAHFntDQYAhCAAAScE0AAIACcWxFngAAEIACBuCOAAEAAxJ3R0mAIQAACEHBOAAGAAHBuRZwBAhCAAATijgACAAEQd0ZLgyEAAQhAwDkBBAACwLkVcQYIQAACUSKQlZX1N0qp20RkkWVZ9UqpJv67w0BEOkQkFOn/JaX15Q2twZCd/zm5ucFI69HlQoFAMBQwD9DRPmZ3cXG1ST+uvn52lR1e+pizJk19z6Su1NTU7CjdhpwWAhCAQGwJKKXGiMhWEydI2cgDuikrBEAghACIrQ+gNghAIAkJ6KcZEdltGqQojwCI5igAAiAJnRFdhgAEYktARF4imEcvmNthywgAIwCx9QLUBgEIJB2BtLS0ISJywk6Q4pjoiYaX36xaa/d9NnMAzOdOMAcg6VwfHYYABETETyCPXiC3y3bBkrL1CAAmAeKhIAABCESNgFLqQrtBiuOiJxyee2XlRgQAAiBqNz4nhgAEICAiZxDIoxfI7bJd+MbaagQAAgAPBQEIQCCqBJRSDXYDFcdFRzwwCZBJgFG96Tk5BCAAAU0gLS3tPBHpIphHJ5jb4YoAQADgnSAAAQjEhICIzGU1AAIgmuv6Tc9NHoCY3PpUAgEIQCAlRSk1WUReE5Hjdp5aOcY9AcEIACMA+CQIQAACMSfg8/n+VmcHTE1NHcp/dxiIyMsmAgkBgACI+Y1PhRCAAAQg4D4BdgM032yIVwDu2yFnhAAEIACBGBNAACAAYmxyVAcBCEAAAl4ggABAAHjBDmkDBCAAAQjEmAACAAEQY5OjOghAAAIQ8AIBBAACwAt2SBsgAAEIQCDGBBAACIAYmxzVQQACEICAFwggABAAXrBD2gABCEAAAjEmgABAAMTY5KgOAhCAAAS8QAABgADwgh3SBghAAAIQiDEBBAACIMYmR3UQgAAEIOAFAggABIAX7JA2QAACEIBAjAkgABAAMTY5qoMABCAAAS8QQAAgALxgh7QBAhCAAARiTAABgACIsclRHQQgAAEIeIEAAgAB4AU7pA0QgAAEIBBjAggABECMTY7qIAABCEDACwQQAAgAL9ghbYAABCAAgRgTQAAgAGJsclQHAQhAAAJeIIAAQAB4wQ5pAwQgAAEIxJgAAgABEGOTozoIQAACEPACAQQAAsALdkgbIAABCEAgxgQQAAiAGJsc1UEAAoNJIDU19XSl1J0iskBElvI/qRnsFJFQpP+XlNaXN7QGQ3b+5+TmBiOtR5cLBQLBUMA8QEf7mN3FxdUm/bj6+tlVdnjpY86aNPU9k7pSU1OzB9O3UDcEIOBhAkqpL4tIu4lToWzkATLRWSEAAiEEgIcdHE2DAAT6J9Ad/CN+2kv0YEb/zIUNAgAB0L934VMIQMCzBNLS0oaIyAGCnnnQg9lfmCEAEACedXI0DAIQ6J+AZVl3EMj+EshgYY/Foreq19h9n80cAPO5E8wB6N+f8SkEIGBAQESeIejZC3pw+wu3BUvK1iMAmARo4HooCgEIDDYBEXmZQPaXQAYLeyyeW7TiXQQAAmCw/Rn1QwACBgRE5D8IevaCHtz+wu3FV1fXIQAQAAauh6IQgMBgExCRiwlkfwlksLDHYvHyulUIAATAYPsz6ocABMwInPqRCDBKYEKQtBckE5kbqwBYBWDmdigNAQh4gkBqaupQETHKLJbIwYy+mQscBAACwBPOjEZAAALmBHQ+AMuyHheRDgKgeQBMdmYIAASAudfhCAhAwFMEcnJyPufz+UYppYpFpIT/ScvgLRNRgwBAAHjKkdEYCEAAAhCwR4DdAM03G2IvAHu2xlEQgAAEIOAhAggABICHzJGmQAACEIBArAggABAAsbI16oEABCAAAQ8RQAAgADxkjjQFAhCAAARiRQABgACIla1RDwQgAAEIeIgAAgAB4CFzpCkQgAAEIBArAggABECsbI16IAABCEDAQwQQAAgAD5kjTYEABCAAgVgRQAAgAGJla9QDAQhAAAIeIoAAQAB4yBxpCgQgAAEIxIoAAgABECtbox4IQAACEPAQAQQAAsBD5khTIAABCEAgVgQQAAiAWNka9UAAAhCAgIcIIAAQAB4yR5oCAQhAAAKxIoAAQADEytaoBwIQgAAEPEQAAYAA8JA50hQIQAACEIgVAQQAAiBWtkY9EIAABCDgIQIIAASAh8yRpkAAAhCAQKwIIAAQALGyNeqBAAQgAAEPEUAAIAA8ZI40BQIQgAAEYkUAAYAAiJWtUQ8EIAABCHiIAAIAAeAhc6QpEIAABCAQKwIIAARArGyNeiAAAQhAwEMEEAAIAA+ZI02BAAQgAIFYEUAAIABiZWvUAwEIQAACHiKAAEAAeMgcaQoEIAABCMSKAAIAARArW6MeCEAAAhDwEAEEAALAQ+ZIUyAAAQhAIFYEEAAIgFjZGvVAAAIQgICHCCAAEAAeMkeaAgEIQAACsSKAAEAAxMrWqAcCEIAABDxEAAGAAPCQOdIUCEAAAhCIFQEEAAIgVrZGPRCAAAQg4CECCAT4o40AACAASURBVAAEgIfMkaZAAAIQgECsCCAAEACxsjXqgQAEIAABDxFAACAAPGSONAUCEIAABGJFAAGAAIiVrVEPBCAAAQh4iAACAAHgIXOkKRCAAAQgECsCCAAEQKxsjXogAAEIQMBDBBAACAAPmSNNgQAEIACBWBFAACAAYmVr1AMBCEAAAh4igABAAHjIHGkKBCAAAQjEigACAAEQK1ujHghAAAIQ8BABBAACwEPmSFMgAAEIQCBWBBAACIBY2Rr1QAACEICAhwggABAAHjJHmgIBCEAAArEigABAAMTK1qgHAhCAAAQ8RAABgADwkDnSFAhAAAIQiBUBBAACIFa2Rj0QgAAEIOAhAggABICHzJGmQAACEIBArAggABAAsbI16oEABCAAAQ8RQAAgADxkjjQFAhCAAARiRQABgACIla1RDwQgAAEIeIgAAgAB4CFzpCkQgAAEIBArAggABECsbI16IAABCEDAQwQQAAgAD5kjTYEABCAAgVgRQAAgAGJla9QDAQhAAAIeIoAAQAB4yBxpCgQgAAEIxIoAAgABECtbox4IQAACEPAQAQQAAsBD5khTIAABCEAgVgQQAAiAWNka9UAAAhCAgIcIIAAQAB4yR5oCAQhAAAKxIoAAQADEytaoBwIQgAAEPEQAAYAA8JA50hQIQAACEIgRgb8SkaUiEor0/5LS+vKG1mDIzv+c3NxgpPXocqFAIBgKmAfoaB+zu7i42qQfV18/u8oOL33MWZOmvmdS10fXc0qMbIdqIAABCEAgHgkopcYopdYaBpcQAiAQ8rgAOCYiD+Xk5HwuHu2SNkMAAhCAQJQI+Hy+vxWR+0VEB4qIn/x7yiIAPC8Aeq7pJqVUUZTMiNNCAAIQgEA8EfD5fDNEpLEnmNv5iQCIGwGghUCXUuoppdQ/xZOd0lYIQAACEHCJgM/nO00p9bSdgN/3mDcrGtfYfZ/NHADzuROFRYHNfa+Bjb93WpZ1uUvmxGkgAAEIQCAeCIjIVBFptRE0eoaSP/GzavO+LQiA2E0CvGXOXRVuXTsR+bWI/F082C1thAAEIAAB+wROsSzrX+2+6+8v6EybUayDfxcCIHYC4LWyd1b1dy0cfLZRKTXWvllxJAQgAAEIeJZAenr6Rw978paDIPGJp359HqVU11sVjRV2g78+jlcA5q8AGlqDxy+54to6N6+liBwWkTmeNWAaBgEIQAAC5gTS0tLO+8i5f+hmwPClp5+Y//z/LHcS/BEAtoL/x/kW6prb91529fW1bl7T7nMt1PNDzK2MIyAAAQhAwEsETvlo1vd9eua3m4FCT0Jb1bCjzmnwRwDYFwDd7LsWvblu5YiRY3a7eX1FpNnn843ykiHTFghAAAIQiJCATvqil3u5GRiG5uQGH5u/QD/1H3Uj+CMAHAuAj0cD6ls69v/gp4+XpmdkHHfxeneIyCURmhvFIAABCEDACwRE5AsissKtYKDf9d/9nQfK6prbP3Ar8PechzkA7ogAzbNmS1vTNbNurnLrunePHN3vBZumDRCAAAQgEIaATufr5hI//7kXbVy9/v2GnoDt9k8EgHsCoPvadC0prS0bM3b8By4Kgd8WFBR8Nozp8TUEIAABCAwWARG5WET00O2nZuybfpaekXHskV8/80ZDa/CY20G/9/kQAK4LgP/dlKml48A99z1kvK/DSeyklOyBg3VnUy8EIACBkxD4KJ3vtSLiyjvgqdOLmtZs2LWhd6CO1u8IgCgJgO7dGV8v37BqeMGIvScJ7CZicaPP51MnMUO+ggAEIACBWBKwLOtWEel06uT1u/55D/x8RUNr8GC0An7f8yIAoisANO+65vYPb7xlrlujAc2pqalDY2nf1AUBCEAAAv0QUEp9w41lfuMmTNxRVretum+AjuLfR3634NXlOp+AiXAJBQLBUCAQ8tp/0+2AC0aO2vPG6o2ro8j3f18FdI8E6GyNzy8uK83KHnrIhPcAZVt9Pl9uP+bIRxCAAAQgEAsCH2Vvu2cAB20yrBvSCWX0U2KMglGXHpY+a9LU9+y0PVEEQE/fL7jkyoY1G3ZGbZJl32ta2bi70S77njZ3/9zl8/lGx8LOqQMCEIAABHoRUEr9sI9DNgr63cd2ffdHv3o92hP9eoJQxfqd71xy+dX1TtqdaAJAs/D5fJ3RWmbZw773z/qWjn3X3XCLG8sF91iWdWYvs+RXCEAAAhCIJgERud9JENXH6nfvelOZ3oEhWr/XNO1v/uq/3lOhlLIjUj5xTCgQOOi14X/dnj3FZpsB9Xf9huXktv/nUwuXNrQGD0frWvQ67wmd1EnP++ivLQaf7WcjoWje7ZwbAhCAQDcBvWGLgXP+RPDsOW7SOVNbqjbt2dQrGPR9X+zK3/pJ8+HHfr88MzPrSE/dTn7mp6d3eDH46zYd9vs3O+lb72P1fIzFy2rKnOyyGOm1fbOicU1eXn577/pt/L4jNTU1m5sUAhCAAASiRKB7qZ+j2f4XX3pVfX1LR1ukAcJmuY8n+OXm5e+3EUz6FS36PDfm59d6VQCEAoFDeT5f0M3+Xn7V9TWVjbvftXkNIhZxlY27N44aPdbpZlGbTj/99NQomT6nhQAEIJC8BESkREQcPUnfdOvtaxtag4eiGVCWVmysmHj2FFsT/MIFz62Fhas8LABCj40fXxquD6bf6/kB877/sxX1ze17onndqre0tZ49eUqzaft6l7csqz4jI+PzyXuX0nMIQAACLhPw+Xxni4ijp8s77/2+HlKOWlY//Z5/1uw5bq01/9QowN0jRlSEAoEuLwuATr9/z4TMzF29g6Jbv+vRlPnPLnF1I6a+gkKvBPF/8cKNDtu8KjU19e9dvgU4HQQgAIHkI6CUyhORfU6c8kOPPPlmtN4n17d0HPzVk8+WZ2ZmHXXSxpMdO2/kyFVdHl3/31eQdBQXrx+Xmel0OP1TAqiHz9TpRZtW1LTqkZyIh/hNyta3BINXXz+7tqc+Oz+VUv+dkpJySvLdrfQYAhCAgEsETjvttH8UkQ12nLA+Rs/wfuqFN/RTY1SCxbLKLWvHjJ0QlSde3f6JmZnvb5w+vaxvkPX63yf8/h33jxpVrkSczrAfUAjcfve88vqWjr1RuraHZ3/1jgq7dtd93Hddug04DQQgAIGkI3CqiCxy4oS7h4yjEfwP6v3nXVhC1m+Ay/X5gs9OnLi8y+/37Kz/SERIsKRkw7+ccUa1k2t4smP1xD09iz9KIuCYnjNysvrDfNellLoi6e5aOgwBCEDAKQHLsh4I42D7DZ49x/z66T8ti0Zg0FnrJk+Z7miyWE8b+/70KdX547Fjyzr9/g8iCbDxUmZ3UVHVxTk5Tt+tD3i9dRKh+taOjihc76OzZt9W2fc6GfzdkZqaOtLpvcDxEIAABJKGgIh8yUl+/1888fTKKASD43pNv2nu/kiDxVeGD684XFLSGC9B3UY7OzcVFq6dkpW1I1ImJuXOPGvytlUNO+qicN2Dl1x+dY1JW/qU3co2wknjuugoBCDghIBlWcNF5EAfJzrg01/fcg/+7HHX3/nXNbfvvfK6m6IylB0YNmzLzqKitTYCquc2BIqwD0erp05dMTojY0/fa+f07/SMjOPReO1T39LRft5Fl6530L43UlJSPuPkvuBYCEAAAglNQC+fEpF37Tra7q18u9x8Cly78YN3xp151ja7bRrouImZmTt1IAwFAiciDJzxGvD7bXeX39+m5zkMVcqN3fk+IRD/9Zv36RTPrm7prLM6Fs60n+1QKfX/EvrmpXMQgAAEnBCwLOuJgQJmuM+vu+GWdQ2tweNuBv9Fb1eXubR97J8D1J8n+MXJsr5oi5MTfv/7j44fvyJdKaNtkcPZw8yScxtrmva3umkPtU1t20aMHLM7XN0DfH9cKTXJyf3BsRCAAAQSkkBaWtp5dt/7Tyssbmpo6TjgorPv1K8SBnDkfw7mJt/rAPfouHErOgOBD6MdVOPx/Hr+w5zhw9eZMA1XNi9/eFtZ7bZaF+0itKphR72DvR22fOELX/j/EvIGplMQgAAE7BBITU09XURsracfXjBib03T/hYXnfxRvcY8XHAx+f7L+fm1hxJ7gl+/w/x2hIheMVCSnd1kwvdkZXWwdnvXRz0ydLI6w3z3pJ17hGMgAAEIJCKBU0RkcRin2e9Td0ZG5tHyhu01Lgb/4KzZc5ws+/pEO/V7/nf/N5GPp1P42gnUUT7m2KopU0r17od27KLvMXrlxoIl5aUu2knoF0/8YVnfeiL9Wyl1ZSLeyPQJAhCAgBEBEZkbqePsW04/ibnl1PVM//MuuuydvnXY+Vuv5//jxInLQ7zndzQyoOcH/OuIEU6S8XxCkP37/BfczA3Recucu+xmC9ydnp4uRjcKhSEAAQgkEgERybC7yU/3jH9XsvzpneamzSjeYifY9z1mSnZ2a1txcXWUn5AdBdZ4a1tjYWHlcJ/PldEAV5eJtnQccLDz40uJdC/TFwhAAAJGBOym+tXLsdxa5lXf0rHff+5FrmSp01n84j19r1fFwfGSku035ec7Scjz59GAH/7i167lilizYdd6/SqqrxCM8O+LjG4YCkMAAhBIBAIf7Z1+WYRO8s+OW5fPyso+vK5xT6MbQ/86wcv5F1/uJMHLx207w+fbv23mzDVeDZ4J1K7ONyZPXubGksHH5i9wTQTo5EN2bFlEWtk6OBG8GX2AAAQiJiAifycitvLpL1y6ZoUbwV+PIFx29fWOtn3VTr9k2LCmI35/UwIFWc+/XthXXFwzNiPD7nr8PwvK3zzziltzAjqvmXVzlR0RoJT6YcQ3DgUhAAEIxDsBEfmpHWf59Tu/s9ql4H/MrsPu3e77Ro1axUS/wKAIhuN+//uX5+XZzhrZcx3dWh1Q19z+4chRY+wsZT2alpZWEO/3NO2HAAQgEJaAz+cbLSLHexxwpD/HjD9zp1vJfvQEwkjr7a+c3uf+zcmTl/HUPzjBvxf3Q/NGjlzV3zWK9DO9f0Bp1VadRdLxhFK9NXGk9fYuZ1nWspSUlFPC3jwUgAAEIBDPBJRStt6XvlXRWOGGk376pbds1d/jsPX757rp03UO/0F58qXeT3HvenriREfXNDc3r6Nq055NbtjXbXO/aVeQXBPP9zVthwAEIHBSAkqpC3oCqcnP2+Z+05Whf/2kp5/4TOruXXaYz3fw/RkzkmnnvrgROW9Nnrxcj8z0vl4mv+vthPUwvlMRUNfc/oFOQWxSd3fZrQUFBZ896Q3ElxCAAATilMCpImK8pW5uXv6B2q0HPnDqmKs279ucl5ffbsMxfzxpbER6+r79RUUNPIF/6gncMyJBj8w4WSFw4ZeuamhoDR5xamsvvrbK1ismy7K+Eqf3Ns2GAAQgMDABy7KutxN8X3q9wo1Z/8Gp04ts55c/IyOjvaO4eD3B37vBv+fabCgsXKkzMdqxNX3MAw8/5kbK4K4rr73BWOyKyPt6hczAdxHfQAACEIgzAnpoUyllHIAvv+p6nee/y+kT2T33PbTSbkDQw/77iopqewIMP70vAuqnT19h93WAUiq0tGKj4/kmNVvammzuGvitOLu9aS4EIACBgQmIyNdNA7DP5+usbNy90Wnw1zvBmdbdU36oUof2FhfXEPS9H/T7XqNVU6fanhiYm5e/v7apbZtT2/vxL39rpw1tGRkZnx/4buIbCEAAAnFCQGc6E5GdPUE10p/6qd2pA65p2t9q971/hlLHd82cWdk3sPB3/IiBVyZNsr1j3/kXX17f0Bo85sQG61s62vKHFxhPCLQs6wdxcnvTTAhAAAIDE7Cz21/20GGH6rYe2OnE+Ta0Bk+cd9GlttP8Vk6bVkqwj59gP8C16npwzJjySEVn33KPPvmc40yBv1vwqp1RgAOnnXbaPw58V/ENBCAAAe8T+IyIGO+y9+hvFjh2vL9/4XU7jvfjGf/zx4/XW/l6ZnY7bXF0LQ5fk5/f0De4R/K3XjLqwmuowxMmTtoeSX29y1iW9a/ev71pIQQgAIEBCCilrujt1CL5fcTIMbv1Jj1Onv5rmtq25+TmBiOpr2+ZOcOHrwsFAscJuo6CrqfEU2cgsHdadnZr32sdyd96FEmPJjmxx0VvV5dFUlefMs0pKSl/NcCtxccQgAAEvE1ARFb3cWp/3ohloM+fX1zmeBnWrNm3VQ50/pN9Xpid3dIVCLQT/BMn+Pdcy0MlJY3ZSh0+2fUf6LunXnjD6c6BnUUl5zUOdP6BPldKXeXtO5zWQQACEOiHgIhMHcixDfT56DHjdMKfw06etpaU1tp52gplKnWsvbj4nZ6Awc/EEwFrp00rHcj2TvZ59tBhB/WEUid2+eqKBjurUSr7ubX4CAIQgIC3CYjIwpM51f6++68XXnP07l+/OtCvEPo7d7jPys45h0l/STDv4bujR9vasOeGm7+21okA0K8Rzp48pSWcHfbz/VRv3+m0DgIQgEAvAqmpqdkiYpSNTa+9drrb3y+e+IOtZV9zR4zQy/26eOpPvKf+vte0KxDYf0529rZ+Am3Y11Mra1urnIgA/XrLtF6l1Iu9bi1+hQAEIOBtAiLyPVNH96snn3X09K+XDerlg6b1js7I2NPp9+/pGyj4O3HFgM7saCddcLH//A0NrcFOByLgsH7NZWijR0XkC96+42kdBCAAgf8lcIpp2t+srOzDehc1B441dPe8B22l+22cPr2MYJ+4wX6ga/vouHG2NuxZvKymzImdPvHUS3ZGqebiXCAAAQh4noBSqtjwCSd034OPOJr5v65xT6PP5zthWm/3kj9PLVkbKGDxubsiRa/2mJiZqTffCTv037vM+Alnve9komp9S8e+oTnGS1TXef7Gp4EQgAAElFJP93aYkfxetWnPZidPVTfeMndtJPX0LpPj8wWP+f2tBFZ3A2s88dw2Y4at5aJP/fdSR8sC7WxO5fP5RuNdIAABCHiWgE5fKiIHewfacL9fcMmVeg/2kN3/VZv2bFJKdYWrp+/3b59zDtn+kmDWfzhBcveIERV9bSPc32PGn6nTVB+1a7OrGnbUh6ujn+8f9uyNT8MgAAEIWJZ1Sz+O66RDrC+9XrHCriPVx93xrfuN1/3rWeChQOBIuODA94k/OnA0EGjWOSBM7Xbh0jWO7Hbq9CLT7bF3TZgw4a/xMhCAAAQ8SUApZZR/X78LdZL2t3brgR0ZGZnGzntzYWE5wT3xg3uk1/g/x483Xp43ZdqMrU5WBPxuwavGkwEty/qiJ298GgUBCCQ3AZ/Pd5qIHDd5knK65e8DDz9m7LgvzsnZGAoEOiMNDpRLfKGgl4GekZHRbmK7uuzSisbVdkev6prbP7QhXh9Lbi9D7yEAAU8SUEp92dSBrl6/Q++5buv9v83Z1KF9xcU1BPXED+qm1/jVSZOMn8idzl+Z/dU7TOcfbE9JSTnFkw6ARkEAAslLwLKsF0wEwFmTpr5nN/jr4555eZnR6wbdthvz82tNAwPlk0MsdPn9HWf4fPtNbFiXrWzc3WjXjl8v32Bnf4Bxyetl6DkEIOA5Ajk5OZ8TEaMh1B//8reOllIVB85/19RZ75w5U6f8Zd0/DPq1gRcnTjQeBdCvoewKgPqWYFAnwTK04/s85wBoEAQgkLwELMs619CJhVY17Kiz6zjXbNi13rS+84YO3US+f8TPyQRgp9+/e6hSRumkP97DojV4yK4tz5o9xzSHBTsEJq+rpecQ8B4BEXnMJCDrHfv07mh2nea8B35unMaVlL8E/5MF/57vHrexImBJaX25XVt+8dVyU1vuUkr5vOcFaBEEIJCUBERkq4kA+M79D6+06zAbWoOHcvPyD5jUNzEzc2coEDje4+T5iRgYyAaOBQLNSsQosdSV191Ubdee9WoAn89ntHOmiPxLUjoaOg0BCHiLgM/nUybBWJddVrnF9t7qdiZOLTz77GUDOXw+Rwz0tQE9WdTEpnUAr2tu32VXBFz4pStNMwPO95YXoDUQgEBSEhCRa02cZfbQYQedbKZimvlPP82R858g3zfIn+zvjdOmGWeXfGFJme3MgPOfXWK6omVTUjobOg0BCHiLgOn7/6uvn11l90mpoTV4LC9/eJuJ4Lj5jDOqT+bs+Q5x0I8NHCpITzeys1mzb6u0a9cV63e+Y2LTuuyQIUPSvOUJaA0EIJB0BESkzsR5Pf5fLy6z6yhXVLdUmdSly5L2lwDfT4Dvdxlg73JPGE4G1Fn96ls69tu07WOmWwRblnVZ0jkbOgwBCHiHwNChQ/+PiJwwCcrlDdtrbDrJ0PceetQo9a9e0hUKBIK9HTu/IwgisYG24mIjYavvgVdXNNheDXDltTdUm9xHlmX9zDuegJZAAAJJR0ApdYGJ08rMzNJbqNpeMz1h4qTtJvV9c8SINZE4e8ogCvqxgc7xWVkfmtjb7XffZ1sAPDZ/gdE8AMuy1iSdw6HDEICAdwhYlvUDEwd5yeVX2879X71l33smdemy6wsLV/bj2MMO/3IMgkDbwC/HjTNaoz96zDjbKwHK694zfb11LCsr62+84w1oCQQgkFQERORlk6D8yK+fsf3+f9Gb61aa1JWu1InOQGAvwZxgbtcG3p8xwzRLX6imaX+rzVdcBzMyMo+a2LjP5xudVA6HzkIAAt4hICKbTRzWmxWNa2w6x5DeOtikri+z8Q8jHc73PDic5/MFTezu5aWVtpNc+c+9aKNJXXoJrne8AS2BAASShoDP5/tb0wmAtU1ttncAnHTO1BYT57iY5D8IAOcCIDRn+PB1Jnb3rft+ZFsA3Hnv943yD1iW9UDSOBw6CgEIeIeAZVnjTRyjXubU0BrstDMCoLOsmdSly+4tKmLrXxcCoN3h80Q57rVJk4x2CDxr8hS7rwBCNhICveQdj0BLIACBpCFgWdYsk6B83kWXvWMn+OtjllZsrDCpK0upI6FA4HCiBCH6MXjzGPYVFRkvB6xvbt9jx9Z1imwTOxeRd5PG4dBRCEDAOwRE5Ecmzure+39iO1WqTh5kUtes/Pw6gubgBc0EY38kW6nDJvZnN9dFbVPbNpN6ROR4Tk7O57zjFWgJBCCQFARMVwA89d9Ll9t5KtLHzLnj26tMHOMLEyey+Q/D/67NgdCC0sT+nltUWmrT1rtyc/M6TOpiJUBSuFs6CQFvERARox3TVlS3rLPpFEOFM0u2mDjFLYWFqxLsKdS1YAYX85GRJ8880ygD5bwHfm57tOuCiy833RfgIm95BloDAQgkPAER2W0SlB2sjz5muj76iN+/mUBnHuhg1j+zqilTjATAxZdeZTvh1e13zys3ua8sy7o14Z0NHYQABLxDoKCg4LMi0mXiqBpag3ob4JDp/6pNe4xyDWQqdSwUCBwlmPUfzOBizqWtuLjexNZz8/IPNLQGu0xtXZf/0S+fNEoJ/FG7vusdz0BLIACBhCdgWVamiUPUW/jacYb6mLcqGo1WAJw7bBhP/7z/d/WVSVcgcEAZCt76lo69dmz+dwteNRIAlmU9kfAOhw5CAALeIaCUmmwiAAqLApvtOEN9zIIl5UbDr/NGjuT9PwLAVQGgR00mZma+b2LzVZv2bLJj80tKa41eAYjIIu94BloCAQgkPAHLsi43cYbX3XCL7QmAj/5mgdESwD9OnLicYW7zYW6YnZzZNfn5DSY2X1q11ZbN6yWEJvWISGXCOxw6CAEIeIeAiHzdxEndPe9B2+lRdf4Ak7pWnnMOAoARANdHAL4zatRqEztcuHSNLZuv2dLWbFKPiGz3jmegJRCAQMITEJH7TZzUL574g+1dAGfNnlNpUhdLAE/+JMuTvj0+88880+jd/BNPL7Rl8/WtHUZ5AETkSMI7HDoIAQh4h4CIPGQSlOc/u9iWM9TvUIsD579rUldbcTFZABkBcH0E4K3Jk40EwHd/9IjtZEA+n6/TxOZTUlJO9Y53oCUQgEBCExCRX5o4qD8ufNt2FsCJk6a0mtR1zO9v4SnX3lMu3AbmtnH6dKOd+r5xz/3ldiYB6mOysoceMrF5Efm7hHY4dA4CEPAOAaXUf5o4qBeWlNnOjDZ6zLgPTOrq9Ps/IJANHMhgY4/NezNmGM0BuG3uN1fbFQBnDC/YZ2LzSql/8o53oCUQgEBCE1BKPWXioBa9XV1m1xnm5uXvN6lLr9kmyNkLcnAbmNvOoiKjnfpmzZ6z1q7Njxl/5k4Tm/f5fCqhHQ6dgwAEvENARBaYOKjXyzessusMMzOzjpjURRbAgYMYAd4+m73FxUbL8664+ss1dm1+0jlTW0xs3ufz5XjHO9ASCEAgoQno5CMmDuqttZvW2HSGXUqpiFMO+5TqJMjZD3KwG5hde0mJUR6ACy65ssGmzYd04iyT+8vn841KaIdD5yAAAe8QEJE3TBzUiuqWKpvO0Ggf9qFKHSKIDRzEYGOfzaGSkkYTmy8qOa/Rps2Hzrvo0vUmdaWlpU30jnegJRCAQEITEJHXTByU3axoDa1Bo+H/bKUOE+TsBznYDcwuWFKy0cTm/edetNGuANDHmtRlWdb4hHY4dA4CEPAOARF52cRBvVnRGJNXAHrDFoLYwEEMNvbZ7C8qMnoFcOGXrrL/CmCm3+gVQFpa2gjveAdaAgEIJDQBy7JeMBEAr5dvsL0kKiMj86hJXaFAQG8H7HoiGM6Z3Ez3GU4CvPyq621PApw8ZbpROmCfz5eb0A6HzkEAAt4hICJ/NAnKeoczu8OhObm5QZO6ugKBIME6uYN1NK7/rqKidSZ26GQDrPETzt5hUpeIZHjHO9ASCEAgoQmIyO9MHNTLSyttbYyiRcOo0WM/NKnrhN+/IxoBgHMmt6jYXFhotE3vLXPuqrArekePGWdk86effnpqQjscOgcBCHiHgGVZj5sE5WdeXmY7FfC0GcVbTOo65PdvJFgnd7COxvWvmDKl1MQO533/Z7azX2ZlDzUa9crKyvq/3vEOtAQCEEhoAkqpk+YyPQAAH8NJREFUB02c4b/Pf8H2ZkCXXvXPtSZ17S4qqopGAOCcyS0qXpk0aZmJHTrYAdN0H4ATbAaU0O6WzkHAWwSUUneaOMPvPfSo3Z3RQnoo1aSuxunTywnWyR2so3H9nxg/3mgE4PcvvG5r1Kt26wHT9/8fess70BoIQCChCSilbjAJyl/7xr22UwHroVSTupZOnrwsGgGAcya3qLi9oMBoL4BFb66zNe+lsnG3UcIhEdmY0M6GzkEAAt4ioJS6wCQoX339bLuZAENPPPWS0dDro+PHryBYJ3ewjsb1L8nObjKx+bK6bbaWAa6sba0yqUdEyrzlHWgNBCCQ0AR8Pt/ZJk5K5za3OyN68bIao33YvzJ8OHMAyIPgdh6IrmE+30ETm69tanvPjs0vKa01snedlCuhnQ2dgwAEvEUgNTU128QZDs3JDdpxhvqYVQ076kzqmpqd/V40ngA5Z/KOKpwIBIy2503PyDje0BrU/0Om/594eqHRiJeI/MZb3oHWQAACCU1gwoQJfy0iJ0wCc11z+15TZ6jL12498L5JPTodcFcg0E7ATt6A7fa131lUZPT+f+LZU2w9/Wt7v/f+nxjNeVFKzUtoZ0PnIAAB7xEQkVaTwLxmw671dgRAQ2uwKy8vv92krrbi4nq3gwDnS15B8dbkyctN7G/W7Nsqbdp66Mrrbqo2qcuyrH/2nnegRRCAQEITUEoZOcXXyzfYXgmgN1YxcYpV06aVErCTN2C7fe1/OGaM0Xv5nz32e1tLALVoOGvS1PdMbF1EpiS0o6FzEICA9wiYpgN+8g+LbCcDmvfAz42GRX86duxKt4MA50teQTEjO9toc55Fb1eX2RwBOJqRkXnMRAD4fD7lPe9AiyAAgYQm8JGT+q6Jo5p717/Z3hDoucUrjJKwzMzObiZgJ2/AdvPad/r9e/S8EhNbX9e4p9GOALCRA+AwWQAT2s3SOQh4k4CIXGviFHVOfztOUR+zev2OepO6tMPu9Pt3uxkIOFdyCoptM2euNrG9zMysIw2twaN2bN10CaBSqsGb3oFWQQACCU0gLS1thIlj7F4addiOY2xoDR7Jyso+YlLftpkzKwjayRm03bzuT0+caDTX5ZIrrq2zaeMhPXfAxMb1ttwJ7WToHAQg4FkCfyUiRkG58t0PN9p1jhd+6UqjUQCdu93NQMC5klNMnDts2GaToPzzx5+2PddFrx4wqeuj++/bnvUONAwCEEhsAiJSY+KwFi5dY3uL1Icf/Z3R0xEJgZIzYLsp1E74/e+bvv9/a+2mNXZF7ugx43aZ3E9KqQsT28PQOwhAwLMELMv6vYnDuue+h2xtkKId6psVjWtM6tJlj/r9W90MCJwruURF7dSpRqtPfD5fZ31Lxz47AqB6yz7T5X8hEUn3rHOgYRCAQGITUErdZRKUp0ybsdWOc9TH1Ld2dGRkZB41qW/ZOecsJ2gnV9B283rfOWKEkeg876LL3rFr34verlppYtsi0paSknJKYnsYegcBCHiWgE5CYuK0lFJd9c3te+w6ySuu/rLRK4fLcnM3uBkQOFfyiImuQGB/llJGc1z+43cv2n7/b5rrQkRe9axjoGEQgEDiE8jJyfmciBw2EQF6KN+uAJj//P8YzQPQ7Trm97cQuJMncLt1rd+ZNs30iTxUsX6n7RGAwpl+o8mG7AGQ+P6VHkLA8wREpNxEAPzol0/aTpNatWmPkZPU7Vo6efIyt4IC50keIfH1ESOMZuQXjBipN7s6YUfc6o2y9PwBk/tIKVXkeedAAyEAgcQmICI/MXFcThICaec6dXpRk1F92dmtoUCgi+CdPMHb6bXWs//TlTLa7XLe939me4WLaQIgETk+ZMiQf0hsz0LvIAABzxP4aCngJSYBWZetaWrbbudJSR/z7/NfMN0vPbS3qKjWaVDg+OQREIvPPtvYxlbWtlbZtek77/2+0WZDIlLpecdAAyEAgcQnoJT6JxExelp6YUmZ7aelmi1tRiMAWnA8OGZMGQE8eQK4w2vdeU529jYTUVswcpSe2HrcpgDoHDV67Icm9VmW9bPE9yz0EAIQiAsClmVVmDiw2V+9o8Kmswzp4wqLAkZzAfRs7k6//wOHgSHE8YkvIrbPmLHWxJZ12fsefKTUrj1XvvvhBtP6RKQkLhwDjYQABBKfgIjcZ+LEhubkBhtagwftOs3fv/C68WqAhWefzWTAQOIHcKci7cv5+bUmtqzLOpn9b+OVVlCvvkl8r0IPIQCBuCDg8/nOMnWar5W9s8quAKhv6dird10zqXNEevq+UCAQdBogOD5xRURHSYnx03hhcWCTXTvWx5lOahWRV+LCKdBICEAgaQicKiIfmATk2+Z+c7UTxznnG982Wn6o27ZmyhQ2CGIUYMBXOd8ZOdJo619tU88tKrU//N+4u9Hknuku+7Wk8Sp0FAIQiA8CSqmnTZxZVvbQQ/UtQf0q4OP3+qY/y2pbq03q02UnZGbuCgUCh3iKT9yneLvX9rDfv9mnlNFa/P+14Y42U9vtKf+rJ581Xm2Qmpo6ND48Aq2EAASShoCd5YBLSuvLe5yhjZ9dhUWBd01FQDn7Awz4BGw3eCbCcXePGGE0kVXb3bwf/ML207+298lTpjcb2m910jgUOgoBCMQPge60wPtNHNp1N9yyzkbg//OIwctLK43TtY7LzPywi7kAiIBer0I6iovXm277qzP3VW9p22LXflc17Kg3uVe6y94TPx6BlkIAAklFQCn1lIlT05sD1TTtb7XrRBtag0dN91DX7WNFAK8Aeo9a2Jn5f8ucuxwtZf3WfT8yFq/p6enDksqh0FkIQCB+CCilLjQRALqsfg/qQACEfvPMK8bvUbOVOnTc79/WOwjwe3KKgi2FhcaTSbXd6id4u3Zb39LRrpfCmtwrlmWtiR9PQEshAIGkI1BQUPBZEdln4thGjR63s6E1eMy+Mw0GR4wcvdekTl123siRqwj6yRn0e133Q5MyM3eY2s41s262nfZX27nOhGlap4jcnXQOhQ5DAALxRUBE/sPUuS2t2OhoOPV3C141Tgyk27h95sw1vYIB78V7vRdPBi7PTpxoy27WbNjZYFew6uMC519imm/geHp6usSXJ6C1EIBA0hFQSo0xFQCXXHFtnROH2tAaPDRm7IRdpvXqpz8mBCbnKMDhkpLGTKWOmdrMjbfMXevEVssbtteY1ikiLyedI6HDEIBAfBIQkXWmTq5i/c71ThyrTshiWqcuP3/8+OXJ8LRLHz8hdI5fmptr+hQe0jP/Kxt3b3RipzfdervxXgMiclF8egJaDQEIJB0By7K+YhqM59zxbdupgbsd8nHTTYJ0G3Xylz3FxdUEyE8EyIR+HfKKje1+ta3M+/7PbO9iqW20pqltqxYRhvfGzpSUlL9KOidChyEAgfgkMGTIkH8QkXYTR+dLTz/hcElgyE52QN3GiZmZ73cFAnqvgIQOfPQvENJr/u0M/efm5nXUNbd/4OTpXwsIk3tCl7Us6wfx6QVoNQQgkLQELMt63NTZ/b8Hf+HoCUs75xtu/pqdIdbQfaNGsSogwQVQVyDQPi07+z1Tu9Tl9Q6UToJ/7dYDu7Kyhx42rPu4ZVmZSetE6DgEIBCfBHw+X66IGA13ZmRkHqvesu89J462pml/i87RbuhoQ7p81bRpbBaUuCKg699sbPaj7UK/WtJJp5zY5X0PPmJnjsoz8Xn302oIQCDpCYjIQtNAfPe8B1c6cbT62PnPLrG1vEsPDbcVF9cxVJ54r0LePuccWzah39k7Sfqj7bGmqW17RkbmUdN7QW+znfROBAAQgEB8EhCRqcZOT88F2NLW5FAEHA+cd7HxRkG6rRMzM3d2+v0fIAISRwTsLi6uzlDquKkt6vIPPPyYow1/tB3fe/9PjN/9i8jb8XnX02oIQAAC3QQsyzLeZe1r37jX6YqAUOW7H27UrxTsOP1Lc3LeCbFhUEJMiDzq9zcVpKe32bGDCRMnba9v7ehwIkZrtrQ1p2dkGIsPnVYbJwIBCEAgrgnY2SZYRLpWN+yodeJ49bFPPL3QeJ+AnkBxx4gRa0OBwAlGAuJ3JKAzENhbmJ3d0nNNTX7qof+yum01Tm3whpu/vsakXl3Wsqz6lJSUU+L6xqfxEIAABDQBvZGJqRP0f/FCnXCl06ED7rz86ll1pnX3lP/t+PFMCozTSYE6w+MVubnv9FxL059ON6nSdmt3WaplWZfiOSAAAQgkBAGfz3e+qQPW5V9eWul4QmDt1gM78vKH2xoC1m14ZdKkZYwCxN0owNE5w4cbZ6PssdEvXvClDU42qOoWrbYSU32U9a+Kp/+EcHt0AgIQ6CEgIsbbro4eM26X3jrV4ShA6I3VG1crpbp6HLzpz7cnT0YExM9IwLE7R4ywlQtC28UZwwv2OV2Kqu3Vbmpq3v33eAx+QgACCUNAKVVsGnh1+e899KjjWdjaIT/86O9sLQPTbVAiXSvPOYc9A7wvAo58c8QI40mnPXap3/svr2qqdCo465rbd+Xm5e/vOa/Bz0qe/hPG5dERCECgNwERed3AGX6cnKd7HbbT3QJDDa3BE9fdcIvtYWHdbr19LK8DPPs64KCTYX99ffWkUafBXx9/y5y7bIkQpdTM3vcLv0MAAhBIGAKWZQ0XEeOleVOnz9za0Bo84tQ517W07z7zrMnbTEVI7/LdIqALIeAdIdAVCOyflZ9ve7Knvr7/MucbFS5MOtWvm+wG/xcT5kanIxCAAAT6IyAij/YOqJH+/u/zX3Dl6axq874tuXn5ticF6vbOGzlS7xtwGBEw+CLgRCCw84JhwxojtaP+yp174aV6xclBpwKzvqVj/5ixE3b1V0eYz46kpqYO7e9+4TMIQAACCUMgIyPj8yKyJ4xD/Hj4v3cZnUxlzYadDU6dtD6+vH57bWZm1pHe5zf9/dq8vHq9zhwRMHgi4FBJSaPeydH02vUur0eE6prbP3TDrm6/+z7jia66LUqpHybMDU5HIAABCJyMgIjM7e2EI/198pTpzfUtwaAbznrR29VlTlYG6DYXZmdvPez3b0IExF4EbCosXJXj8x2M1Hb6Kze8YMTeqs37nKad1vNLQktKa20FfxHZ+YUvfOH/O9n9wncQgAAEEonAZ0Sksj+nHO4znVfdDQGgz/Hc4hV2dmj7xOhEns8X3FJYyFbCsVshcFzPwwhnJ+G+z8vLb1+zYdd6N2zJYa6JqxPpxqYvEIAABMISUEqNFRHjHOnaset1/W44bn2O+c8utp0uuCfI6GWC88eP1ysEmBcQRSFw3O/fpl+99HC3+zN76LCDq+q3u7Gy5OPVJZdcca3dCYiLw94oFIAABCCQiARE5Ed2nHhe/hkd1VvaWt0SAY/+ZoFjEaD78cVhwxoPl5S8yysB918JNM2YUTE8Pf2AHXvpfUxWVvbh0qqt69yynZ8//rRd2wmmpqZmJ+J9TZ8gAAEIhCWQk5PzORHZ2NtBR/p7YXFgU0OrO/MBdDD47TOLHb8O0G0fqtSh7qRBbCTkwmiAnmj5vVGj7L5f/8TrmqE5ucGVNa2uBf83KxrXOJhHMjfsDUIBCEAAAolMIC0trVBEOiMN/L3Lzb17XplbT3L6PM8vLivViYd612H394uGDXs3WFKykdEA+6MBzTNmrBqdkWG8YqS/a6Yz861ev6PeLXup3tLWkpuXb3dEYlVKSsqpiXxf0zcIQAACEREQkR/357Qj+eyPC99e7pZT1+dZuHTNCjv7t/fX1kylji2YOHGZ3pkOIRC5EDjq9zd91cFmPn2vxegx4z6obNz9rlt2oleiFBYFNvetJ8K/29PT04dFdGNQCAIQgECiE5gwYcJf29kyWDtcX3r6ibcqGnUWt4+XY7nxc0V1S5WeJR6hQ//EMHN/x0zIzNxVPXXqilAg0IkQGFgI6Ix+eoZ/llKOcjT0vgaFM0u21DS1bXfDLrrPcWL2V++wle1Pt0spdWOi38/0DwIQgIARAZ/PlyMiHb2dd6S/61ndazbsesdFJx9a17h789gJE+1kdRtQEFyWm7th18yZlYiAT4mAg8smT14+Kj19b6TXPJJyV157Q7XOzuemXTzw8GO254oopf7b6KagMAQgAIFkIaCUui0Sx95fmTFjx3+g12O76ez1+fTe8P3V5+Sz6/Ly6vcWF9cgBAKHV0+dunx8VtYHTnj2d+y8B36u80UcddMenvrvpU7yD2z3+XynJcu9TD8hAAEIGBMQkef6c+iRfKZXBtS3dLS56fQbWoOHv/3dH9t+6jtZuy/Oydn47vTpZaFA4HgyiQE9s/+tyZOXn5mZ6eoIi2adlZV95E9vrHV1cqi2J517wsEEUb0B1hTjm4EDIAABCCQTgdTU1L9XSjWcLHCe7LsLLr7infrWjg6XRUDohSVlK5zuHzBQu6dlZ7eWTp68vNPv35PIQiBYUrLh0XHjVgxzmMJ3II46r3/lux9ucPval1Y3r83IyHQyL4Elf8nkxOgrBCBgn4DP58sVEds79l186VV6uZcrewb0DibrNu3ZMrPk3KaBApDTzzOVOnrfqFGrPiwqWhcKBBIij4B+2l87bVqpHu1wyudkx3/19m+V17d07Ot9vdz4XS8d1PkDTlZ3mO+esX8ncCQEIACBJCQgIhfZzQ+gHfI1s26uamgNHnEjCPQ5x+Hv/+Tf9UZCA072CxMQIjpubEbG7ifGjy/dV1RUG29ioMvvb1tfWLjy6yNGVGYoZSvdc6QMc3Pz2he+UeHKVtF9rnNILx3U+QMibUvfcpZl1esRrSS8fekyBCAAAWcEROT+vk7V5O8bb5m7Vr/D7+vY3fj7rbWb1o4df6ajrWgj7cvI9PS9D4wZU67nC3T6/bs9+JqgUyc9emPy5GXX5+XVRTvo93DTs/yrt+x7z43r2fccFet3vpOXP9z2KJTe8lqvbHF2B3A0BCAAgeQlcIpS6qkeh2/n52VXX18bjTkBOmDUt3S069EAn8/XZadtdo8pGTas6Rfjxq3QT9lHSkq2xHoSoX7C31dcXKMD/u0FBWvP8PlsPyXbYZCbl9/20uurdQKorr6B242/y+u31zrMA3FUKTUzeW9beg4BCEDABQI6SZCIvGknUPQcc9GlV21oaOk44EZw6O8ceme5wpl+u5nhInol0NOX/n7qxDmX5OZufHjMmJWvTZq0rHH69PL9RUUNnX7/LrviQGcv1Bn5ds6cWVk1bVrpMxMnLtfB/uzMzB39tSEWn+m8+7ffPa+8rrn9w/6ugxufLa/aWpmVPfSQg/50WZZ1vQumzykgAAEIQECvn7a7aVCPIw+cf8mGaAaOhtbg8ecWlZaeMbxgX0+dXvl5Rnr6gRnZ2c2X5uZu+HJ+fu2tw4dX6VS7dxYUrNG/6/9X5OWtP2/o0E16aZ6bmfjcYqCv36qGHW5t4dtv1sjXyt5ZlZGRedRJmy3L+g53LAQgAAEIuEggNTV1qIjsdOKc9TKxqs37trjxpDjQOepbOvZ+76FHSzMyMvXab8dP98l+jtFjxu3S+zM0tAY7B2Luxufzn/+f5Q529uu5zr920eQ5FQQgAAEI9BBITU0dqSdXOQmKelZ3Wd22GjeCxsnOUbO1bYfORufWxkJO+hyPxxaMGLl3/rNL9Hv+gyfj7MJ3J7Rgc8qoO83vX/XYKj8hAAEIQMBlApZlnSkidrdh/fhJTQ/zLnq7aqULwaPfoeTe561patt6+933lSMEIhsNGTFyzO7fPPPKMr3jXm+O0fhdT+KcNXvOWqfBX0Re0XNVXDZ1TgcBCEAAAn0JKKUm2904qLezj0a++IECVW1T27aHH/v9cifrynu3PdF+P2vylNY//unt0hg88X8s2mq2tDVPm1G8xQWOb2dlZf1NXxvlbwhAAAIQiBIBESkRkYNOHfgll19TV9fcvmugwO3253qvAv2+efKU6c1O2x7vx+vc+rNm31bZvZ1zVN/x976OOq9/bm6erZ0n+zAvGzJkyD9EycQ5LQQgAAEIDEQgLS2tUETa+zjlnglZEf/UE830Ur7eQSIGv3eteuf9td+45/43MzOzHAsZpwxiebzeZvlXv3l+pZ4nEQPOvV/THP/ZY793Y7Kftq03yfI30J3J5xCAAARiQMCyrAlOJwbq4KefRn/w08f1EPSxGAclnVBo/+JlNWU33Xq73nQmIVcP6OWRd3/ngTKdQVEvmYw1Y/0KRu8R4ZLQWezz+f42BuZNFRCAAAQgcDICaWlpBSLiSlre8y+6fENtU1tU0stGEvTqmtv3vvR6xYqvfP2u1Q6z0UU8AuJSUPxUfVOmzdj6w5//5/Ky2tbqhtbgiUj6H40yS0rrlufk5LqVrfB5Jvyd7G7kOwhAAAIxJiAi+SKy1Y1gpgPvwqVr9CqBqKSaNQhyx8obttf84ok/LNNPr9HajtgNZvoc+lXKbXO/uXrBkvLSwRRRPXy1mJp717+Vu9U/y7KeSElJ+UyMTZvqIAABCEAgHAGl1D+JyEq3HP5V/3xTvRcCWU9A07sb6mx4ehLh175x76qp04uaBmt5oV7NcOlV/1yr19Dr1xfR2pSnV997v8sP+/urKxtWFowcvdslW9B7Pdwfzv74HgIQgAAEBpGAXpIlIs+55PhD2UOHHfqvBa/pTHSDNoQdJggernz3ww1LSmvLf/30n5bde/9PVlx53U3Vk6cVNjtZcqhHG8aMnbDLf+5FG/XriB//8rfLn1u8onR5VVPlIEzeCxvwexjVbj2w46Zb565y6/qLyBERuW4QTZqqIQABCEDAgMCpSqlfuBgEQjoQRjsXfU8Qc/nncb0HQtXmfZu1UFjVsKN+ZW1rlf6/vKppbc/v+jv9X0+Wi9buiS73q68oOKJHRlxa3tczn0FnnZxqYHcUhQAEIAABLxCwLOuf3cgV0FtI6Jn6OkhGOZj1DW783RockIEWMfp1SO/r5MLvNampqdlesGPaAAEIQAACNghYljVeRFpcCAg9T4X6tcDB//jdi8vi9El5wEAab6JmXeOexmtm3Vzl5rXtPtd/sczPxs3GIRCAAAS8RqB7cuDrbgeK4QUjYrVhTcIEbTdERs2WtiadU8CXnn7C5Wt6XETu8Zr90h4IQAACEHBG4DN6JreIuB00Pl7+9szLy3USoSNuBDjO0f9wf03T/tYoBX49urNVKTXJmYlxNAQgAAEIeJaAz+c7W0Q2u/zk+PHrAb2T3WPzFyyvb+nYSxDvP4jb4VLZuHujDvxRXPK4ICMj4/OeNVoaBgEIQAAC7hAYOnTo/xGRP0ZDBOhz5uTmBh/82ePLPZZDIN5eI3Qtq9yy9rKrr6+N1nUSEZ0dkCV+7txWnAUCEIBA/BDQzt+NfQQGClA+n+/ENbP+Zc0bqzaWD8YeA3aetgf7mLrm9g/mP7tkud4eeCCubnxuWdYyZvnHz71KSyEAAQi4TiA1NfX0j9IIP+tGUDnZOXSa3Ed+/cyymqb9zYMdZD1Y/zH9tP8vc75REcVh/p5VHG2WZd2ckpJyiuvGxAkhAAEIQCD+CPh8vvNFJKpPnT0CoXBmyRY9V6CmaX+LB4NxrF4VdOqkRHoHxlGjx37YwybKP19RSvnizzppMQQgAAEIRJXAaaed9o9KqUdEJCZb8iqlui645MoGPeRd2bi7MQnEQPCttZvW3PfgI7EM+vrJv9myrEujajycHAIQgAAE4p+AZVnDReS1KD+N9gxJ//nnmPFn7vzO9x5esbSicXWCrCTorNq0Z/NTL7yx/OrrZ1cNwm6GQaXUPJL6xP89SQ8gAAEIxJSAUupCEWmMtRDQ9enRAZ3eVguCRW9XrYyTuQMHy+u31z75h0XLbrj5a2udbEbkkLneve8PPp9PxdRgqAwCEIAABBKHQEFBwWc/WinwdRF532FQ+vOTvt3z5OXlt1986VX1egh9wZKyUv0Ova6lffcgvDo4UrOlrfmtisaKJ556adltc7+5Wu8+GIXMfHaYvaFzPSSOBdITCEAAAhAYVAJ6GFkpdZeIxGrCWsTBT+9NUDjTv/nGW+aufeDhx0r1E/iLr5Z//CqhrHZbrR6Gr96y77365vY99S0dbfUtHe29RMPR7s/a9Da/Otvemg273tHb/i5eVlP29EtvLX/0yeeW3Xnv98suufyaurHjz3zf5/N12hUxUTyu1LKs6YNqJFQOAQhAAAKJS2DIkCH/oJT6NxHZHcVgFnHwpw1SLiL+xLU4egYBCEAAAp4ikJOT8zml1JdFZCNBWGItWPQIxCsiUuIpo6AxEIAABCCQVAROFZGLPnoK1U+isQ6EyVbfEaXUU3qVRlJZGJ2FAAQgAAFvE7Asa4KI/FJE9iEGXBVD7+ptetPS0oZ42wJoHQQgAAEIJDWBrKysv1FKXSkiSxECtoXAYRFZ0D3MT9repL6j6DwEIACBOCTQnVTofuYKRCQEjup3+5ZlXa+zMsbh5abJEIAABCAAgU8TUEqNUUr9UEQ2MzLwZ0Ggg77OunhTRkbG5z9NjU8gAAEIQAACCUQgNTV1qGVZt3YPc3ckmSDYqSfz6dckQ4cO/T8JdFnpCgQgAAEIQCByAiLyd927ET7cvZpAPxUn0gz/95VSL1qWdUdaWlpB5GQoCQEIQAACEEgiAnoSoWVZ0yzLuldEXta72cWRIDgkIpVKqf/UeRLS09OHJdGlo6sQgAAEIAABdwnooXIRmaqU+qplWU+IyNvdwuD4IImD/SJSo5T6b8uyHuhe9ZCfkpLyGXd7ztkgAAEIQAACEOiPwF+lpqZmK6WKlFI3isi3ReSnIvJf3dnyVukdDZVSTSKysztHQVsv0aCX2+m8Bfr/1u5ydd0C4zkReUxEvv/R97dblnW5ZVnjmazX32Xgs2Qh8P8DHNzv8Mtj+XUAAAAASUVORK5CYII=;" vertex="1" parent="8">
                    <mxGeometry x="530" y="100.24000000000001" width="184.76" height="184.76" as="geometry"/>
                </mxCell>
                <mxCell id="14" value="&lt;font color=&quot;#ffffff&quot;&gt;Fahrenheit:&lt;/font&gt;" style="text;html=1;align=left;verticalAlign=middle;resizable=0;points=[];autosize=1;strokeColor=none;fillColor=none;fontSize=15;fontColor=light-dark(#000000,#FFFFFF);" vertex="1" parent="1">
                    <mxGeometry x="75" y="280" width="100" height="30" as="geometry"/>
                </mxCell>
                <mxCell id="15" value="&lt;font color=&quot;#ffffff&quot;&gt;Please enter the Fahrenheit:&lt;/font&gt;" style="text;html=1;align=left;verticalAlign=middle;resizable=0;points=[];autosize=1;strokeColor=none;fillColor=none;fontSize=20;fontColor=light-dark(#000000,#FFFFFF);" vertex="1" parent="1">
                    <mxGeometry x="75" y="220" width="280" height="40" as="geometry"/>
                </mxCell>
                <mxCell id="16" value="&lt;font color=&quot;#ffffff&quot;&gt;Formula&lt;/font&gt;" style="text;html=1;align=left;verticalAlign=middle;resizable=0;points=[];autosize=1;strokeColor=none;fillColor=none;fontSize=25;fontColor=light-dark(#000000,#FFFFFF);" vertex="1" parent="1">
                    <mxGeometry x="75" y="105.24000000000001" width="120" height="40" as="geometry"/>
                </mxCell>
                <mxCell id="17" value="&lt;font color=&quot;#ffffff&quot;&gt;(F - 32) x 5 / 9 = C&lt;/font&gt;" style="text;html=1;align=left;verticalAlign=middle;resizable=0;points=[];autosize=1;strokeColor=none;fillColor=none;fontSize=23;fontColor=light-dark(#000000,#FFFFFF);" vertex="1" parent="1">
                    <mxGeometry x="75" y="160" width="210" height="40" as="geometry"/>
                </mxCell>
                <mxCell id="18" value="" style="whiteSpace=wrap;html=1;" vertex="1" parent="1">
                    <mxGeometry x="45" y="43" width="760" height="55" as="geometry"/>
                </mxCell>
                <mxCell id="19" value="Fahrenheit to Celsius, with JS" style="text;html=1;align=center;verticalAlign=middle;resizable=0;points=[];autosize=1;strokeColor=none;fillColor=none;fontSize=30;fontStyle=1" vertex="1" parent="1">
                    <mxGeometry x="215" y="45.5" width="420" height="50" as="geometry"/>
                </mxCell>
            </root>
        </mxGraphModel>
    </diagram>
</mxfile>